<?xml version="1.0" encoding="UTF-8"?>
<!DOCTYPE svg PUBLIC "-//W3C//DTD SVG 1.1//EN" "http://www.w3.org/Graphics/SVG/1.1/DTD/svg11.dtd">
<!-- Creator: CorelDRAW 2017 -->
<svg xmlns="http://www.w3.org/2000/svg" xml:space="preserve" width="297mm" height="420mm" version="1.1" style="shape-rendering:geometricPrecision; text-rendering:geometricPrecision; image-rendering:optimizeQuality; fill-rule:evenodd; clip-rule:evenodd"
viewBox="0 0 29700 42000"
 xmlns:xlink="http://www.w3.org/1999/xlink">
 <defs>
  <style type="text/css">
   <![CDATA[
    .fil1 {fill:#6C7874}
    .fil0 {fill:#B0B1A1}
    .fil2 {fill:#6C7874;fill-rule:nonzero}
    .fil3 {fill:#B0B1A1;fill-rule:nonzero}
   ]]>
  </style>
 </defs>
 <g id="Layer_x0020_1">
  <metadata id="CorelCorpID_0Corel-Layer"/>
  <path class="fil0" d="M11290 12402l-1828 0 -1458 0 -3523 0 0 11606 0 3523 5678 0 3523 -3523 -5679 0 0 -8083 884 0 3859 0 3111 -3111 412 -412 629 -629 417 -417 0 0 5679 0 0 8083 3523 0 0 -8083 0 0 0 -3523 -10659 0 -474 474 -830 830 -788 788 -783 783 -812 812 -881 881zm3851 15129l11377 0 0 -3523 0 -1046 -3523 0 0 1046 -4331 0 -3523 3523z"/>
  <polygon class="fil1" points="8004,11356 12335,11356 15858,7833 12335,7833 4481,7833 4481,11356 4481,12402 8004,12402 "/>
  <polygon class="fil1" points="19709,22962 26517,22962 26517,19439 18251,19439 10160,27531 15140,27531 "/>
  <path class="fil2" d="M6178 31044c310,0 589,66 835,197 247,131 440,322 580,573 140,251 210,551 210,901l0 1704c0,70 -24,129 -72,177 -48,48 -107,72 -177,72 -74,0 -135,-24 -183,-72 -48,-48 -72,-107 -72,-177l0 -1704c0,-389 -108,-685 -324,-888 -216,-203 -499,-305 -849,-305 -214,0 -407,42 -580,125 -173,83 -309,198 -410,344 -100,146 -151,309 -151,488l0 1940c0,74 -23,134 -69,180 -46,46 -106,69 -180,69 -74,0 -135,-23 -183,-69 -48,-46 -72,-106 -72,-180l0 -3080c0,-74 24,-135 72,-183 48,-48 109,-72 183,-72 74,0 134,24 180,72 46,48 69,109 69,183l0 223c144,-162 319,-288 524,-380 205,-92 428,-138 668,-138z"/>
  <path class="fil3" d="M10451 31050c546,0 989,210 1330,629 35,39 52,85 52,138 0,70 -37,131 -111,183 -39,26 -81,39 -125,39 -66,0 -129,-33 -190,-98 -131,-144 -275,-252 -432,-324 -157,-72 -332,-108 -524,-108 -240,0 -454,58 -642,174 -188,116 -333,278 -436,488 -103,210 -154,446 -154,708 0,258 55,490 164,698 109,207 262,370 459,488 197,118 422,177 675,177 349,0 631,-94 845,-282 57,-48 116,-72 177,-72 52,0 100,17 144,52 61,52 92,111 92,177 0,57 -22,105 -66,144 -315,293 -712,439 -1193,439 -341,0 -647,-80 -917,-239 -271,-159 -484,-378 -639,-655 -155,-277 -233,-586 -233,-927 0,-349 74,-663 223,-940 149,-277 354,-495 616,-652 262,-157 557,-236 885,-236zm2241 -1252c0,-74 24,-134 72,-180 48,-46 107,-69 177,-69 74,0 134,23 180,69 46,46 69,106 69,180l0 3735c0,188 38,341 115,459 76,118 174,177 292,177l164 0c66,0 118,23 157,69 39,46 59,106 59,180 0,74 -27,134 -82,180 -55,46 -126,69 -213,69l-85 0c-266,0 -484,-106 -652,-318 -168,-212 -252,-484 -252,-816l0 -3735zm3414 1252c345,0 655,79 930,236 275,157 493,376 652,655 159,280 239,592 239,937 0,345 -79,656 -236,934 -157,277 -375,495 -652,652 -277,157 -589,236 -934,236 -345,0 -656,-79 -934,-236 -277,-157 -495,-375 -652,-652 -157,-277 -236,-589 -236,-934 0,-345 79,-657 236,-937 157,-280 375,-498 652,-655 277,-157 589,-236 934,-236zm0 459c-249,0 -475,59 -678,177 -203,118 -363,281 -478,488 -116,207 -174,442 -174,704 0,258 58,490 174,698 116,207 275,370 478,488 203,118 429,177 678,177 253,0 481,-59 681,-177 201,-118 358,-281 472,-488 114,-207 170,-440 170,-698 0,-262 -57,-497 -170,-704 -114,-207 -271,-370 -472,-488 -201,-118 -428,-177 -681,-177zm4502 -465c310,0 589,66 835,197 247,131 440,322 580,573 140,251 210,551 210,901l0 1704c0,70 -24,129 -72,177 -48,48 -107,72 -177,72 -74,0 -135,-24 -183,-72 -48,-48 -72,-107 -72,-177l0 -1704c0,-389 -108,-685 -324,-888 -216,-203 -499,-305 -849,-305 -214,0 -407,42 -580,125 -173,83 -309,198 -410,344 -100,146 -151,309 -151,488l0 1940c0,74 -23,134 -69,180 -46,46 -106,69 -180,69 -74,0 -135,-23 -183,-69 -48,-46 -72,-106 -72,-180l0 -3080c0,-74 24,-135 72,-183 48,-48 109,-72 183,-72 74,0 134,24 180,72 46,48 69,109 69,183l0 223c144,-162 319,-288 524,-380 205,-92 428,-138 668,-138zm4266 7c323,0 609,75 858,226 249,151 442,359 580,626 138,266 206,570 206,911 0,70 -22,126 -66,167 -44,42 -100,62 -170,62l-2647 0c35,358 175,649 419,871 245,223 550,334 917,334 157,0 316,-27 475,-82 159,-55 287,-123 383,-206 57,-44 116,-66 177,-66 48,0 96,17 144,52 57,52 85,111 85,177 0,57 -24,107 -72,151 -144,122 -328,224 -550,305 -223,81 -437,121 -642,121 -349,0 -662,-78 -937,-233 -275,-155 -490,-371 -645,-649 -155,-277 -233,-591 -233,-940 0,-354 73,-669 220,-947 146,-277 349,-494 609,-649 260,-155 556,-233 888,-233zm0 452c-332,0 -607,103 -826,308 -218,205 -352,476 -400,813l2398 0c-35,-336 -157,-607 -367,-813 -210,-205 -478,-308 -806,-308z"/>
 </g>
</svg>
