<?xml version="1.0" encoding="UTF-8"?>
<!DOCTYPE svg PUBLIC "-//W3C//DTD SVG 1.1//EN" "http://www.w3.org/Graphics/SVG/1.1/DTD/svg11.dtd">
<!-- Creator: CorelDRAW 2017 -->
<svg xmlns="http://www.w3.org/2000/svg" xml:space="preserve" width="297mm" height="420mm" version="1.1" style="shape-rendering:geometricPrecision; text-rendering:geometricPrecision; image-rendering:optimizeQuality; fill-rule:evenodd; clip-rule:evenodd"
viewBox="0 0 29700 42000"
 xmlns:xlink="http://www.w3.org/1999/xlink">
 <defs>
  <style type="text/css">
   <![CDATA[
    .fil1 {fill:#6C7874}
    .fil0 {fill:#B0B1A1}
   ]]>
  </style>
 </defs>
 <g id="Layer_x0020_1">
  <metadata id="CorelCorpID_0Corel-Layer"/>
  <path class="fil0" d="M11290 12402l-1828 0 -1458 0 -3523 0 0 11606 0 3523 5678 0 3523 -3523 -5679 0 0 -8083 884 0 3859 0 3111 -3111 412 -412 629 -629 417 -417 0 0 5679 0 0 8083 3523 0 0 -8083 0 0 0 -3523 -10659 0 -474 474 -830 830 -788 788 -783 783 -812 812 -881 881zm3851 15129l11377 0 0 -3523 0 -1046 -3523 0 0 1046 -4331 0 -3523 3523z"/>
  <polygon class="fil1" points="8004,11356 12335,11356 15858,7833 12335,7833 4481,7833 4481,11356 4481,12402 8004,12402 "/>
  <polygon class="fil1" points="19709,22962 26517,22962 26517,19439 18251,19439 10160,27531 15140,27531 "/>
 </g>
</svg>
