<?xml version="1.0" encoding="UTF-8"?>
<!DOCTYPE svg PUBLIC "-//W3C//DTD SVG 1.1//EN" "http://www.w3.org/Graphics/SVG/1.1/DTD/svg11.dtd">
<!-- Creator: CorelDRAW 2017 -->
<svg xmlns="http://www.w3.org/2000/svg" xml:space="preserve" width="420mm" height="297mm" version="1.1" style="shape-rendering:geometricPrecision; text-rendering:geometricPrecision; image-rendering:optimizeQuality; fill-rule:evenodd; clip-rule:evenodd"
viewBox="0 0 42000 29700"
 xmlns:xlink="http://www.w3.org/1999/xlink">
 <defs>
  <style type="text/css">
   <![CDATA[
    .fil1 {fill:#6C7874}
    .fil0 {fill:#B0B1A1}
    .fil2 {fill:#6C7874;fill-rule:nonzero}
    .fil3 {fill:#B0B1A1;fill-rule:nonzero}
   ]]>
  </style>
 </defs>
 <g id="Layer_x0020_1">
  <metadata id="CorelCorpID_0Corel-Layer"/>
  <path class="fil0" d="M6837 13078l-733 0 -584 0 -1413 0 0 4654 0 1413 2277 0 1413 -1413 -2277 0 0 -3241 355 0 1547 0 1247 -1247 165 -165 252 -252 167 -167 0 0 2277 0 0 3241 1413 0 0 -3241 0 0 0 -1413 -4274 0 -190 190 -333 333 -316 316 -314 314 -326 326 -353 353zm1544 6066l4562 0 0 -1413 0 -419 -1413 0 0 419 -1737 0 -1413 1413z"/>
  <polygon class="fil1" points="5520,12659 7257,12659 8669,11246 7257,11246 4107,11246 4107,12659 4107,13078 5520,13078 "/>
  <polygon class="fil1" points="10213,17312 12943,17312 12943,15900 9629,15900 6384,19144 8381,19144 "/>
  <path class="fil2" d="M17642 13170c342,0 650,72 922,217 272,145 486,356 640,633 154,277 231,609 231,995l0 1881c0,77 -27,142 -80,195 -53,53 -118,80 -195,80 -82,0 -149,-27 -203,-80 -53,-53 -80,-118 -80,-195l0 -1881c0,-429 -119,-756 -358,-980 -239,-224 -551,-336 -937,-336 -236,0 -450,46 -640,137 -190,92 -341,218 -452,380 -111,162 -166,341 -166,539l0 2141c0,82 -25,148 -76,199 -51,51 -117,76 -199,76 -82,0 -149,-25 -203,-76 -53,-51 -80,-117 -80,-199l0 -3400c0,-82 27,-149 80,-203 53,-53 121,-80 203,-80 82,0 148,27 199,80 51,53 76,121 76,203l0 246c159,-178 352,-318 579,-420 227,-101 473,-152 738,-152z"/>
  <path class="fil3" d="M22358 13177c603,0 1092,231 1468,694 39,43 58,94 58,152 0,77 -41,145 -123,203 -43,29 -89,43 -137,43 -72,0 -142,-36 -210,-109 -145,-159 -304,-278 -477,-358 -174,-80 -366,-119 -579,-119 -265,0 -502,64 -709,192 -207,128 -368,307 -481,539 -113,231 -170,492 -170,781 0,285 60,541 181,770 121,229 289,409 506,539 217,130 465,195 745,195 386,0 697,-104 933,-311 63,-53 128,-80 195,-80 58,0 111,19 159,58 68,58 101,123 101,195 0,63 -24,116 -72,159 -347,323 -786,485 -1317,485 -376,0 -714,-88 -1013,-264 -299,-176 -534,-417 -705,-723 -171,-306 -257,-647 -257,-1024 0,-386 82,-732 246,-1038 164,-306 391,-546 680,-720 289,-174 615,-260 977,-260zm2474 -1382c0,-82 27,-148 80,-199 53,-51 118,-76 195,-76 82,0 148,25 199,76 51,51 76,117 76,199l0 4123c0,207 42,376 127,506 84,130 192,195 322,195l181 0c72,0 130,25 174,76 43,51 65,117 65,199 0,82 -30,148 -90,199 -60,51 -139,76 -235,76l-94 0c-294,0 -534,-117 -720,-351 -186,-234 -278,-534 -278,-901l0 -4123zm3769 1382c381,0 723,87 1027,260 304,174 544,415 720,723 176,309 264,653 264,1034 0,381 -87,725 -260,1031 -174,306 -414,546 -720,720 -306,174 -650,260 -1031,260 -381,0 -725,-87 -1031,-260 -306,-174 -546,-414 -720,-720 -174,-306 -260,-650 -260,-1031 0,-381 87,-726 260,-1034 174,-309 414,-550 720,-723 306,-174 650,-260 1031,-260zm0 506c-275,0 -524,65 -749,195 -224,130 -400,310 -528,539 -128,229 -192,488 -192,778 0,285 64,541 192,770 128,229 304,409 528,539 224,130 474,195 749,195 280,0 530,-65 752,-195 222,-130 395,-310 521,-539 125,-229 188,-486 188,-770 0,-289 -63,-549 -188,-778 -125,-229 -299,-409 -521,-539 -222,-130 -473,-195 -752,-195zm4969 -514c342,0 650,72 922,217 272,145 486,356 640,633 154,277 231,609 231,995l0 1881c0,77 -27,142 -80,195 -53,53 -118,80 -195,80 -82,0 -149,-27 -203,-80 -53,-53 -80,-118 -80,-195l0 -1881c0,-429 -119,-756 -358,-980 -239,-224 -551,-336 -937,-336 -236,0 -450,46 -640,137 -191,92 -341,218 -452,380 -111,162 -166,341 -166,539l0 2141c0,82 -25,148 -76,199 -51,51 -117,76 -199,76 -82,0 -149,-25 -203,-76 -53,-51 -80,-117 -80,-199l0 -3400c0,-82 27,-149 80,-203 53,-53 121,-80 203,-80 82,0 148,27 199,80 51,53 76,121 76,203l0 246c159,-178 352,-318 579,-420 227,-101 473,-152 738,-152zm4709 7c357,0 673,83 948,250 275,166 488,397 640,691 152,294 228,629 228,1005 0,77 -24,139 -72,184 -48,46 -111,69 -188,69l-2922 0c39,395 193,716 463,962 270,246 608,369 1013,369 174,0 348,-30 524,-90 176,-60 317,-136 423,-228 63,-48 128,-72 195,-72 53,0 106,19 159,58 63,58 94,123 94,195 0,63 -27,118 -80,166 -159,135 -362,247 -608,336 -246,89 -482,134 -709,134 -386,0 -731,-86 -1034,-257 -304,-171 -541,-410 -713,-716 -171,-306 -257,-652 -257,-1038 0,-391 81,-739 242,-1045 162,-306 386,-545 673,-716 287,-171 614,-257 980,-257zm0 499c-367,0 -670,113 -911,340 -241,227 -388,526 -441,897l2648 0c-39,-371 -174,-670 -405,-897 -231,-227 -528,-340 -890,-340z"/>
 </g>
</svg>
